<?xml version="1.0" standalone="no"?>
<!DOCTYPE svg PUBLIC "-//W3C//DTD SVG 20010904//EN"
 "http://www.w3.org/TR/2001/REC-SVG-20010904/DTD/svg10.dtd">
<svg version="1.0" xmlns="http://www.w3.org/2000/svg"
 width="512.000000pt" height="512.000000pt" viewBox="0 0 512.000000 512.000000"
 preserveAspectRatio="xMidYMid meet">

<g transform="translate(0.000000,512.000000) scale(0.100000,-0.100000)"
fill="#000000" stroke="none">
    <circle cx="2560" cy="2560" r="2450" fill="#ffffff" />
<path d="M2310 5079 c-986 -110 -1819 -775 -2141 -1707 -98 -286 -139 -532
-139 -839 0 -662 248 -1287 694 -1751 293 -304 691 -540 1107 -656 270 -75
395 -91 709 -91 279 1 396 14 604 66 477 119 894 360 1232 712 368 381 593
832 686 1373 19 110 22 167 23 394 0 314 -16 439 -91 709 -115 410 -329 778
-628 1077 -396 396 -912 642 -1486 709 -134 16 -444 18 -570 4z m455 -269
c498 -46 977 -263 1348 -610 303 -284 542 -695 640 -1101 49 -201 61 -309 61
-539 0 -230 -12 -338 -61 -539 -78 -325 -246 -653 -471 -921 -296 -354 -732
-624 -1183 -733 -201 -49 -309 -61 -539 -61 -231 0 -338 12 -540 61 -396 96
-810 334 -1087 626 -456 480 -682 1125 -623 1772 54 583 345 1143 790 1518
464 390 1069 582 1665 527z"/>
<path d="M1226 3490 c-16 -5 -40 -19 -54 -32 -53 -50 -52 -25 -52 -890 0 -520
4 -816 10 -840 13 -47 70 -95 122 -103 53 -9 123 26 149 75 17 32 19 61 19
322 l0 288 183 0 c128 0 201 5 247 16 213 50 390 222 444 430 20 78 21 212 1
289 -51 197 -208 361 -410 426 -65 21 -91 23 -350 25 -154 2 -293 -1 -309 -6z
m604 -321 c78 -37 114 -71 149 -141 71 -142 14 -309 -133 -386 -49 -26 -57
-27 -238 -30 l-188 -4 0 297 0 297 178 -4 c165 -3 181 -5 232 -29z"/>
<path d="M2744 3489 c-46 -13 -91 -69 -99 -121 -3 -24 -5 -403 -3 -843 l3
-800 24 -34 c31 -43 100 -75 144 -66 50 11 93 42 111 79 l16 34 53 -29 c98
-55 200 -81 317 -82 128 -2 188 12 307 69 177 85 306 241 359 434 24 88 24
253 1 340 -34 124 -83 207 -182 305 -142 142 -278 199 -475 199 -122 0 -201
-18 -303 -70 -38 -19 -70 -34 -73 -34 -2 0 -4 116 -4 258 0 296 -3 310 -80
350 -47 24 -67 25 -116 11z m706 -834 c152 -52 263 -228 246 -390 -7 -72 -51
-168 -100 -222 -46 -51 -134 -98 -213 -113 -153 -30 -325 55 -396 197 -133
262 65 568 353 549 36 -3 85 -12 110 -21z"/>
</g>
</svg>
